<mxfile host="app.diagrams.net" agent="Mozilla/5.0 (Windows NT 10.0; Win64; x64) AppleWebKit/537.36 (KHTML, like Gecko) Chrome/130.0.0.0 Safari/537.36 Edg/130.0.0.0" version="24.8.4">
  <diagram name="Page-1" id="b2zniBw21khSps9ZilcA">
    <mxGraphModel dx="1876" dy="503" grid="1" gridSize="10" guides="1" tooltips="1" connect="1" arrows="1" fold="1" page="1" pageScale="1" pageWidth="850" pageHeight="1100" math="0" shadow="0">
      <root>
        <mxCell id="0" />
        <mxCell id="1" parent="0" />
        <mxCell id="4N1f6_pCvYBsWOWKFBYq-1" value="port0" style="whiteSpace=wrap;html=1;aspect=fixed;" vertex="1" parent="1">
          <mxGeometry x="80" y="100" width="90" height="90" as="geometry" />
        </mxCell>
        <mxCell id="4N1f6_pCvYBsWOWKFBYq-2" value="ELPK" style="rounded=1;whiteSpace=wrap;html=1;" vertex="1" parent="1">
          <mxGeometry x="100" y="170" width="50" height="100" as="geometry" />
        </mxCell>
        <mxCell id="4N1f6_pCvYBsWOWKFBYq-4" value="&lt;span lang=&quot;EN-US&quot; style=&quot;font-size:10.0pt;font-family:&#xa;&amp;quot;Arial&amp;quot;,sans-serif;mso-fareast-font-family:SimSun;color:red;mso-ansi-language:&#xa;EN-US;mso-fareast-language:ZH-CN;mso-bidi-language:AR-SA&quot;&gt;HSD_QSFP0_IN_N&amp;lt;0&amp;gt;&lt;/span&gt;" style="text;whiteSpace=wrap;html=1;" vertex="1" parent="1">
          <mxGeometry x="-70" y="110" width="80" height="30" as="geometry" />
        </mxCell>
        <mxCell id="4N1f6_pCvYBsWOWKFBYq-8" value="&lt;span lang=&quot;EN-US&quot; style=&quot;font-size:10.0pt;font-family:&#xa;&amp;quot;Arial&amp;quot;,sans-serif;mso-fareast-font-family:SimSun;color:red;mso-ansi-language:&#xa;EN-US;mso-fareast-language:ZH-CN;mso-bidi-language:AR-SA&quot;&gt;HSD_QSFP0_OUT_N&amp;lt;0&lt;/span&gt;" style="text;whiteSpace=wrap;html=1;" vertex="1" parent="1">
          <mxGeometry x="200" y="90" width="180" height="40" as="geometry" />
        </mxCell>
        <mxCell id="4N1f6_pCvYBsWOWKFBYq-9" value="" style="endArrow=none;html=1;rounded=0;curved=1;entryX=0.667;entryY=0.444;entryDx=0;entryDy=0;entryPerimeter=0;" edge="1" parent="1" target="4N1f6_pCvYBsWOWKFBYq-1">
          <mxGeometry width="50" height="50" relative="1" as="geometry">
            <mxPoint x="100" y="130" as="sourcePoint" />
            <mxPoint x="180" y="130" as="targetPoint" />
            <Array as="points">
              <mxPoint x="80" y="80" />
              <mxPoint x="140" y="10" />
            </Array>
          </mxGeometry>
        </mxCell>
        <mxCell id="4N1f6_pCvYBsWOWKFBYq-10" value="" style="endArrow=none;html=1;rounded=0;curved=1;" edge="1" parent="1">
          <mxGeometry width="50" height="50" relative="1" as="geometry">
            <mxPoint x="100" y="130" as="sourcePoint" />
            <mxPoint x="140" y="140" as="targetPoint" />
            <Array as="points">
              <mxPoint x="100" y="140" />
              <mxPoint x="120" y="230" />
              <mxPoint x="140" y="230" />
            </Array>
          </mxGeometry>
        </mxCell>
        <mxCell id="4N1f6_pCvYBsWOWKFBYq-11" value="" style="endArrow=classic;html=1;rounded=0;curved=1;exitX=0.75;exitY=1;exitDx=0;exitDy=0;" edge="1" parent="1" source="4N1f6_pCvYBsWOWKFBYq-4">
          <mxGeometry width="50" height="50" relative="1" as="geometry">
            <mxPoint y="190" as="sourcePoint" />
            <mxPoint x="100" y="150" as="targetPoint" />
          </mxGeometry>
        </mxCell>
        <mxCell id="4N1f6_pCvYBsWOWKFBYq-12" value="" style="endArrow=classic;html=1;rounded=0;curved=1;" edge="1" parent="1">
          <mxGeometry width="50" height="50" relative="1" as="geometry">
            <mxPoint x="190" y="110" as="sourcePoint" />
            <mxPoint x="140" y="150" as="targetPoint" />
          </mxGeometry>
        </mxCell>
      </root>
    </mxGraphModel>
  </diagram>
</mxfile>
